<mxfile host="app.diagrams.net" modified="2020-07-21T18:36:32.885Z" agent="5.0 (Macintosh; Intel Mac OS X 10_15_5) AppleWebKit/537.36 (KHTML, like Gecko) Chrome/83.0.4103.116 Safari/537.36" etag="cKJemrbfOvic3nXdd6Ru" version="13.4.9" type="github">
  <diagram id="rSDTtkVdXVnGvsQYBVzc" name="Page-1">
    <mxGraphModel dx="2066" dy="1105" grid="1" gridSize="10" guides="1" tooltips="1" connect="1" arrows="1" fold="1" page="1" pageScale="1" pageWidth="827" pageHeight="1169" math="0" shadow="0">
      <root>
        <mxCell id="0" />
        <mxCell id="1" parent="0" />
        <mxCell id="1tNTVzIUQ9IoZEPkYIZt-22" value="&lt;font style=&quot;font-size: 18px&quot;&gt;Grantt Chart&lt;/font&gt;" style="text;html=1;align=center;verticalAlign=middle;resizable=0;points=[];autosize=1;" vertex="1" parent="1">
          <mxGeometry x="820" y="550" width="110" height="20" as="geometry" />
        </mxCell>
        <mxCell id="1tNTVzIUQ9IoZEPkYIZt-23" value="P4" style="text;html=1;align=center;verticalAlign=middle;resizable=0;points=[];autosize=1;" vertex="1" parent="1">
          <mxGeometry x="470" y="650" width="30" height="20" as="geometry" />
        </mxCell>
        <mxCell id="1tNTVzIUQ9IoZEPkYIZt-24" value="P3" style="text;html=1;align=center;verticalAlign=middle;resizable=0;points=[];autosize=1;" vertex="1" parent="1">
          <mxGeometry x="500" y="650" width="30" height="20" as="geometry" />
        </mxCell>
        <mxCell id="1tNTVzIUQ9IoZEPkYIZt-25" value="P2" style="text;html=1;align=center;verticalAlign=middle;resizable=0;points=[];autosize=1;" vertex="1" parent="1">
          <mxGeometry x="620" y="650" width="30" height="20" as="geometry" />
        </mxCell>
        <mxCell id="1tNTVzIUQ9IoZEPkYIZt-26" value="P1" style="text;html=1;align=center;verticalAlign=middle;resizable=0;points=[];autosize=1;" vertex="1" parent="1">
          <mxGeometry x="720" y="650" width="30" height="20" as="geometry" />
        </mxCell>
        <mxCell id="1tNTVzIUQ9IoZEPkYIZt-27" value="" style="shape=table;html=1;whiteSpace=wrap;startSize=0;container=1;collapsible=0;childLayout=tableLayout;" vertex="1" parent="1">
          <mxGeometry x="480" y="600" width="453" height="40" as="geometry" />
        </mxCell>
        <mxCell id="1tNTVzIUQ9IoZEPkYIZt-28" value="" style="shape=partialRectangle;html=1;whiteSpace=wrap;collapsible=0;dropTarget=0;pointerEvents=0;fillColor=none;top=0;left=0;bottom=0;right=0;points=[[0,0.5],[1,0.5]];portConstraint=eastwest;" vertex="1" parent="1tNTVzIUQ9IoZEPkYIZt-27">
          <mxGeometry width="453" height="40" as="geometry" />
        </mxCell>
        <mxCell id="1tNTVzIUQ9IoZEPkYIZt-29" value="" style="shape=partialRectangle;html=1;whiteSpace=wrap;connectable=0;overflow=hidden;fillColor=#dae8fc;top=0;left=0;bottom=0;right=0;strokeColor=#6c8ebf;" vertex="1" parent="1tNTVzIUQ9IoZEPkYIZt-28">
          <mxGeometry width="28" height="40" as="geometry" />
        </mxCell>
        <mxCell id="1tNTVzIUQ9IoZEPkYIZt-30" value="" style="shape=partialRectangle;html=1;whiteSpace=wrap;connectable=0;overflow=hidden;fillColor=#e1d5e7;top=0;left=0;bottom=0;right=0;strokeColor=#9673a6;" vertex="1" parent="1tNTVzIUQ9IoZEPkYIZt-28">
          <mxGeometry x="28" width="29" height="40" as="geometry" />
        </mxCell>
        <mxCell id="1tNTVzIUQ9IoZEPkYIZt-31" value="" style="shape=partialRectangle;html=1;whiteSpace=wrap;connectable=0;overflow=hidden;fillColor=#e1d5e7;top=0;left=0;bottom=0;right=0;strokeColor=#9673a6;" vertex="1" parent="1tNTVzIUQ9IoZEPkYIZt-28">
          <mxGeometry x="57" width="28" height="40" as="geometry" />
        </mxCell>
        <mxCell id="1tNTVzIUQ9IoZEPkYIZt-32" value="" style="shape=partialRectangle;html=1;whiteSpace=wrap;connectable=0;overflow=hidden;fillColor=#e1d5e7;top=0;left=0;bottom=0;right=0;strokeColor=#9673a6;" vertex="1" parent="1tNTVzIUQ9IoZEPkYIZt-28">
          <mxGeometry x="85" width="28" height="40" as="geometry" />
        </mxCell>
        <mxCell id="1tNTVzIUQ9IoZEPkYIZt-33" value="" style="shape=partialRectangle;html=1;whiteSpace=wrap;connectable=0;overflow=hidden;fillColor=#e1d5e7;top=0;left=0;bottom=0;right=0;strokeColor=#9673a6;" vertex="1" parent="1tNTVzIUQ9IoZEPkYIZt-28">
          <mxGeometry x="113" width="29" height="40" as="geometry" />
        </mxCell>
        <mxCell id="1tNTVzIUQ9IoZEPkYIZt-34" value="" style="shape=partialRectangle;html=1;whiteSpace=wrap;connectable=0;overflow=hidden;fillColor=#f8cecc;top=0;left=0;bottom=0;right=0;strokeColor=#b85450;" vertex="1" parent="1tNTVzIUQ9IoZEPkYIZt-28">
          <mxGeometry x="142" width="28" height="40" as="geometry" />
        </mxCell>
        <mxCell id="1tNTVzIUQ9IoZEPkYIZt-35" value="" style="shape=partialRectangle;html=1;whiteSpace=wrap;connectable=0;overflow=hidden;fillColor=#f8cecc;top=0;left=0;bottom=0;right=0;strokeColor=#b85450;" vertex="1" parent="1tNTVzIUQ9IoZEPkYIZt-28">
          <mxGeometry x="170" width="28" height="40" as="geometry" />
        </mxCell>
        <mxCell id="1tNTVzIUQ9IoZEPkYIZt-36" value="" style="shape=partialRectangle;html=1;whiteSpace=wrap;connectable=0;overflow=hidden;fillColor=#f8cecc;top=0;left=0;bottom=0;right=0;strokeColor=#b85450;" vertex="1" parent="1tNTVzIUQ9IoZEPkYIZt-28">
          <mxGeometry x="198" width="29" height="40" as="geometry" />
        </mxCell>
        <mxCell id="1tNTVzIUQ9IoZEPkYIZt-37" value="" style="shape=partialRectangle;html=1;whiteSpace=wrap;connectable=0;overflow=hidden;fillColor=#f8cecc;top=0;left=0;bottom=0;right=0;strokeColor=#b85450;" vertex="1" parent="1tNTVzIUQ9IoZEPkYIZt-28">
          <mxGeometry x="227" width="28" height="40" as="geometry" />
        </mxCell>
        <mxCell id="1tNTVzIUQ9IoZEPkYIZt-38" value="" style="shape=partialRectangle;html=1;whiteSpace=wrap;connectable=0;overflow=hidden;fillColor=#fff2cc;top=0;left=0;bottom=0;right=0;strokeColor=#d6b656;" vertex="1" parent="1tNTVzIUQ9IoZEPkYIZt-28">
          <mxGeometry x="255" width="25" height="40" as="geometry" />
        </mxCell>
        <mxCell id="1tNTVzIUQ9IoZEPkYIZt-39" value="" style="shape=partialRectangle;html=1;whiteSpace=wrap;connectable=0;overflow=hidden;fillColor=#fff2cc;top=0;left=0;bottom=0;right=0;strokeColor=#d6b656;" vertex="1" parent="1tNTVzIUQ9IoZEPkYIZt-28">
          <mxGeometry x="280" width="32" height="40" as="geometry" />
        </mxCell>
        <mxCell id="1tNTVzIUQ9IoZEPkYIZt-40" value="" style="shape=partialRectangle;html=1;whiteSpace=wrap;connectable=0;overflow=hidden;fillColor=#fff2cc;top=0;left=0;bottom=0;right=0;strokeColor=#d6b656;" vertex="1" parent="1tNTVzIUQ9IoZEPkYIZt-28">
          <mxGeometry x="312" width="28" height="40" as="geometry" />
        </mxCell>
        <mxCell id="1tNTVzIUQ9IoZEPkYIZt-41" value="" style="shape=partialRectangle;html=1;whiteSpace=wrap;connectable=0;overflow=hidden;fillColor=#fff2cc;top=0;left=0;bottom=0;right=0;strokeColor=#d6b656;" vertex="1" parent="1tNTVzIUQ9IoZEPkYIZt-28">
          <mxGeometry x="340" width="28" height="40" as="geometry" />
        </mxCell>
        <mxCell id="1tNTVzIUQ9IoZEPkYIZt-42" value="" style="shape=partialRectangle;html=1;whiteSpace=wrap;connectable=0;overflow=hidden;fillColor=#fff2cc;top=0;left=0;bottom=0;right=0;strokeColor=#d6b656;" vertex="1" parent="1tNTVzIUQ9IoZEPkYIZt-28">
          <mxGeometry x="368" width="29" height="40" as="geometry" />
        </mxCell>
        <mxCell id="1tNTVzIUQ9IoZEPkYIZt-43" value="" style="shape=partialRectangle;html=1;whiteSpace=wrap;connectable=0;overflow=hidden;fillColor=#fff2cc;top=0;left=0;bottom=0;right=0;strokeColor=#d6b656;" vertex="1" parent="1tNTVzIUQ9IoZEPkYIZt-28">
          <mxGeometry x="397" width="28" height="40" as="geometry" />
        </mxCell>
        <mxCell id="1tNTVzIUQ9IoZEPkYIZt-44" value="" style="shape=partialRectangle;html=1;whiteSpace=wrap;connectable=0;overflow=hidden;fillColor=#fff2cc;top=0;left=0;bottom=0;right=0;strokeColor=#d6b656;" vertex="1" parent="1tNTVzIUQ9IoZEPkYIZt-28">
          <mxGeometry x="425" width="28" height="40" as="geometry" />
        </mxCell>
        <mxCell id="1tNTVzIUQ9IoZEPkYIZt-1" value="" style="shape=table;html=1;whiteSpace=wrap;startSize=0;container=1;collapsible=0;childLayout=tableLayout;" vertex="1" parent="1">
          <mxGeometry x="480" y="230" width="340" height="200" as="geometry" />
        </mxCell>
        <mxCell id="1tNTVzIUQ9IoZEPkYIZt-2" value="" style="shape=partialRectangle;html=1;whiteSpace=wrap;collapsible=0;dropTarget=0;pointerEvents=0;fillColor=none;top=0;left=0;bottom=0;right=0;points=[[0,0.5],[1,0.5]];portConstraint=eastwest;" vertex="1" parent="1tNTVzIUQ9IoZEPkYIZt-1">
          <mxGeometry width="340" height="40" as="geometry" />
        </mxCell>
        <mxCell id="1tNTVzIUQ9IoZEPkYIZt-3" value="Process" style="shape=partialRectangle;html=1;whiteSpace=wrap;connectable=0;overflow=hidden;fillColor=none;top=0;left=0;bottom=0;right=0;" vertex="1" parent="1tNTVzIUQ9IoZEPkYIZt-2">
          <mxGeometry width="113" height="40" as="geometry" />
        </mxCell>
        <mxCell id="1tNTVzIUQ9IoZEPkYIZt-4" value="Arrival Time" style="shape=partialRectangle;html=1;whiteSpace=wrap;connectable=0;overflow=hidden;fillColor=none;top=0;left=0;bottom=0;right=0;" vertex="1" parent="1tNTVzIUQ9IoZEPkYIZt-2">
          <mxGeometry x="113" width="114" height="40" as="geometry" />
        </mxCell>
        <mxCell id="1tNTVzIUQ9IoZEPkYIZt-5" value="Burst&lt;br&gt;Time" style="shape=partialRectangle;html=1;whiteSpace=wrap;connectable=0;overflow=hidden;fillColor=none;top=0;left=0;bottom=0;right=0;" vertex="1" parent="1tNTVzIUQ9IoZEPkYIZt-2">
          <mxGeometry x="227" width="113" height="40" as="geometry" />
        </mxCell>
        <mxCell id="1tNTVzIUQ9IoZEPkYIZt-6" value="" style="shape=partialRectangle;html=1;whiteSpace=wrap;collapsible=0;dropTarget=0;pointerEvents=0;fillColor=none;top=0;left=0;bottom=0;right=0;points=[[0,0.5],[1,0.5]];portConstraint=eastwest;" vertex="1" parent="1tNTVzIUQ9IoZEPkYIZt-1">
          <mxGeometry y="40" width="340" height="40" as="geometry" />
        </mxCell>
        <mxCell id="1tNTVzIUQ9IoZEPkYIZt-7" value="P1" style="shape=partialRectangle;html=1;whiteSpace=wrap;connectable=0;overflow=hidden;fillColor=#fff2cc;top=0;left=0;bottom=0;right=0;strokeColor=#d6b656;" vertex="1" parent="1tNTVzIUQ9IoZEPkYIZt-6">
          <mxGeometry width="113" height="40" as="geometry" />
        </mxCell>
        <mxCell id="1tNTVzIUQ9IoZEPkYIZt-8" value="0" style="shape=partialRectangle;html=1;whiteSpace=wrap;connectable=0;overflow=hidden;fillColor=#fff2cc;top=0;left=0;bottom=0;right=0;strokeColor=#d6b656;" vertex="1" parent="1tNTVzIUQ9IoZEPkYIZt-6">
          <mxGeometry x="113" width="114" height="40" as="geometry" />
        </mxCell>
        <mxCell id="1tNTVzIUQ9IoZEPkYIZt-9" value="7" style="shape=partialRectangle;html=1;whiteSpace=wrap;connectable=0;overflow=hidden;fillColor=#fff2cc;top=0;left=0;bottom=0;right=0;strokeColor=#d6b656;" vertex="1" parent="1tNTVzIUQ9IoZEPkYIZt-6">
          <mxGeometry x="227" width="113" height="40" as="geometry" />
        </mxCell>
        <mxCell id="1tNTVzIUQ9IoZEPkYIZt-10" value="" style="shape=partialRectangle;html=1;whiteSpace=wrap;collapsible=0;dropTarget=0;pointerEvents=0;fillColor=none;top=0;left=0;bottom=0;right=0;points=[[0,0.5],[1,0.5]];portConstraint=eastwest;" vertex="1" parent="1tNTVzIUQ9IoZEPkYIZt-1">
          <mxGeometry y="80" width="340" height="40" as="geometry" />
        </mxCell>
        <mxCell id="1tNTVzIUQ9IoZEPkYIZt-11" value="P2" style="shape=partialRectangle;html=1;whiteSpace=wrap;connectable=0;overflow=hidden;fillColor=#f8cecc;top=0;left=0;bottom=0;right=0;strokeColor=#b85450;" vertex="1" parent="1tNTVzIUQ9IoZEPkYIZt-10">
          <mxGeometry width="113" height="40" as="geometry" />
        </mxCell>
        <mxCell id="1tNTVzIUQ9IoZEPkYIZt-12" value="0" style="shape=partialRectangle;html=1;whiteSpace=wrap;connectable=0;overflow=hidden;fillColor=#f8cecc;top=0;left=0;bottom=0;right=0;strokeColor=#b85450;" vertex="1" parent="1tNTVzIUQ9IoZEPkYIZt-10">
          <mxGeometry x="113" width="114" height="40" as="geometry" />
        </mxCell>
        <mxCell id="1tNTVzIUQ9IoZEPkYIZt-13" value="4" style="shape=partialRectangle;html=1;whiteSpace=wrap;connectable=0;overflow=hidden;fillColor=#f8cecc;top=0;left=0;bottom=0;right=0;strokeColor=#b85450;" vertex="1" parent="1tNTVzIUQ9IoZEPkYIZt-10">
          <mxGeometry x="227" width="113" height="40" as="geometry" />
        </mxCell>
        <mxCell id="1tNTVzIUQ9IoZEPkYIZt-14" value="" style="shape=partialRectangle;html=1;whiteSpace=wrap;collapsible=0;dropTarget=0;pointerEvents=0;fillColor=none;top=0;left=0;bottom=0;right=0;points=[[0,0.5],[1,0.5]];portConstraint=eastwest;" vertex="1" parent="1tNTVzIUQ9IoZEPkYIZt-1">
          <mxGeometry y="120" width="340" height="40" as="geometry" />
        </mxCell>
        <mxCell id="1tNTVzIUQ9IoZEPkYIZt-15" value="P3" style="shape=partialRectangle;html=1;whiteSpace=wrap;connectable=0;overflow=hidden;fillColor=#e1d5e7;top=0;left=0;bottom=0;right=0;strokeColor=#9673a6;" vertex="1" parent="1tNTVzIUQ9IoZEPkYIZt-14">
          <mxGeometry width="113" height="40" as="geometry" />
        </mxCell>
        <mxCell id="1tNTVzIUQ9IoZEPkYIZt-16" value="0" style="shape=partialRectangle;html=1;whiteSpace=wrap;connectable=0;overflow=hidden;fillColor=#e1d5e7;top=0;left=0;bottom=0;right=0;strokeColor=#9673a6;" vertex="1" parent="1tNTVzIUQ9IoZEPkYIZt-14">
          <mxGeometry x="113" width="114" height="40" as="geometry" />
        </mxCell>
        <mxCell id="1tNTVzIUQ9IoZEPkYIZt-17" value="2" style="shape=partialRectangle;html=1;whiteSpace=wrap;connectable=0;overflow=hidden;fillColor=#e1d5e7;top=0;left=0;bottom=0;right=0;strokeColor=#9673a6;" vertex="1" parent="1tNTVzIUQ9IoZEPkYIZt-14">
          <mxGeometry x="227" width="113" height="40" as="geometry" />
        </mxCell>
        <mxCell id="1tNTVzIUQ9IoZEPkYIZt-18" value="" style="shape=partialRectangle;html=1;whiteSpace=wrap;collapsible=0;dropTarget=0;pointerEvents=0;fillColor=none;top=0;left=0;bottom=0;right=0;points=[[0,0.5],[1,0.5]];portConstraint=eastwest;" vertex="1" parent="1tNTVzIUQ9IoZEPkYIZt-1">
          <mxGeometry y="160" width="340" height="40" as="geometry" />
        </mxCell>
        <mxCell id="1tNTVzIUQ9IoZEPkYIZt-19" value="P4" style="shape=partialRectangle;html=1;whiteSpace=wrap;connectable=0;overflow=hidden;fillColor=#dae8fc;top=0;left=0;bottom=0;right=0;strokeColor=#6c8ebf;" vertex="1" parent="1tNTVzIUQ9IoZEPkYIZt-18">
          <mxGeometry width="113" height="40" as="geometry" />
        </mxCell>
        <mxCell id="1tNTVzIUQ9IoZEPkYIZt-20" value="0" style="shape=partialRectangle;html=1;whiteSpace=wrap;connectable=0;overflow=hidden;fillColor=#dae8fc;top=0;left=0;bottom=0;right=0;strokeColor=#6c8ebf;" vertex="1" parent="1tNTVzIUQ9IoZEPkYIZt-18">
          <mxGeometry x="113" width="114" height="40" as="geometry" />
        </mxCell>
        <mxCell id="1tNTVzIUQ9IoZEPkYIZt-21" value="1" style="shape=partialRectangle;html=1;whiteSpace=wrap;connectable=0;overflow=hidden;fillColor=#dae8fc;top=0;left=0;bottom=0;right=0;strokeColor=#6c8ebf;" vertex="1" parent="1tNTVzIUQ9IoZEPkYIZt-18">
          <mxGeometry x="227" width="113" height="40" as="geometry" />
        </mxCell>
        <mxCell id="1tNTVzIUQ9IoZEPkYIZt-47" value="Arrival" style="text;html=1;align=center;verticalAlign=middle;resizable=0;points=[];autosize=1;" vertex="1" parent="1">
          <mxGeometry x="425" y="570" width="50" height="20" as="geometry" />
        </mxCell>
        <mxCell id="1tNTVzIUQ9IoZEPkYIZt-48" value="P1" style="text;html=1;align=center;verticalAlign=middle;resizable=0;points=[];autosize=1;" vertex="1" parent="1">
          <mxGeometry x="475" y="570" width="30" height="20" as="geometry" />
        </mxCell>
        <mxCell id="1tNTVzIUQ9IoZEPkYIZt-49" value="P2" style="text;html=1;align=center;verticalAlign=middle;resizable=0;points=[];autosize=1;" vertex="1" parent="1">
          <mxGeometry x="475" y="550" width="30" height="20" as="geometry" />
        </mxCell>
        <mxCell id="1tNTVzIUQ9IoZEPkYIZt-50" value="P3" style="text;html=1;align=center;verticalAlign=middle;resizable=0;points=[];autosize=1;" vertex="1" parent="1">
          <mxGeometry x="475" y="530" width="30" height="20" as="geometry" />
        </mxCell>
        <mxCell id="1tNTVzIUQ9IoZEPkYIZt-51" value="P4" style="text;html=1;align=center;verticalAlign=middle;resizable=0;points=[];autosize=1;" vertex="1" parent="1">
          <mxGeometry x="475" y="510" width="30" height="20" as="geometry" />
        </mxCell>
      </root>
    </mxGraphModel>
  </diagram>
</mxfile>
